<svg height="512pt" viewBox="0 0 512 512" width="512pt" xmlns="http://www.w3.org/2000/svg"><path d="m66.390625 151h109.214844l-2.726563-30h23.121094v-30c-34.871094 0-117.1875 0-150 0v30h23.121094zm0 0"/><path d="m164.695312 31h-28.695312v-31h-30v31h-28.695312l-2.726563 30h92.847656zm0 0"/><path d="m58.210938 241h125.578124l-2.726562-30h29.9375v-30c-89.515625 0-104.027344 0-180 0v30h29.9375zm0 0"/><path d="m496 359.769531c0-20.414062-4.554688-40.285156-12.863281-58.769531h-184.273438c-8.308593 18.484375-12.863281 38.355469-12.863281 58.769531v1.230469h210zm0 0"/><path d="m406 218.878906v-37.878906h-30v37.878906c-25.777344 22.789063-34.160156 18.957032-59.300781 52.121094h148.601562c-25.136719-33.164062-33.523437-29.332031-59.300781-52.121094zm0 0"/><path d="m0 512h241v-121h-241zm166-91h30v30h-30zm-60 0h30v30h-30zm-60 0h30v30h-30zm0 0"/><path d="m47.296875 361h147.40625l-5.457031-60h36.753906v-30s-141.0625 0-210 0v30h36.753906zm0 0"/><path d="m271 391v121h90v-76h60v76h91v-121zm0 0"/></svg>